<?xml version="1.0" ?><svg height="512" id="Layer_1" version="1.1" viewBox="0 0 512 512" width="512" xml:space="preserve" xmlns="http://www.w3.org/2000/svg" xmlns:cc="http://creativecommons.org/ns#" xmlns:dc="http://purl.org/dc/elements/1.1/" xmlns:rdf="http://www.w3.org/1999/02/22-rdf-syntax-ns#" xmlns:svg="http://www.w3.org/2000/svg"><defs id="defs7"/><g id="g2988" transform="matrix(0.62439024,0,0,0.62439024,-63.687803,-63.687803)"><rect height="820" id="rect3004" rx="40" ry="40" style="fill:#333333;fill-opacity:1;stroke:none" width="820" x="102" y="102"/><g id="g2985" transform="matrix(1.1999999,0,0,1.1999999,204.80001,204.80001)"><g id="g7190" transform="translate(-5965.6977,-4484.2862)"><path d="m 6089.2,4521.7591 c -7.3036,-0.1499 -14.7533,1.6313 -21.5347,5.5637 -19.7275,11.4394 -26.4615,36.7276 -15.0219,56.4551 11.4394,19.7275 36.7276,26.4287 56.455,14.9892 19.7275,-11.4395 26.4287,-36.6948 14.9893,-56.4224 -7.5072,-12.9461 -20.9443,-20.2996 -34.8877,-20.5856 z m 297.363,17.051 c -6.6556,0.1855 -13.3735,1.9889 -19.5385,5.5638 -19.7274,11.4395 -26.4287,36.7276 -14.9891,56.4551 11.4395,19.7274 36.6948,26.4287 56.4224,14.9892 19.7274,-11.4395 26.4287,-36.6949 14.9891,-56.4224 -7.8646,-13.5626 -22.2417,-20.9936 -36.8839,-20.5857 z m -372.7673,145.4742 c -7.3037,-0.1499 -14.7207,1.6641 -21.502,5.5964 -19.7276,11.4396 -26.4615,36.6949 -15.022,56.4224 11.4394,19.7275 36.7276,26.4288 56.455,14.9893 19.7276,-11.4396 26.4288,-36.6949 14.9894,-56.4224 -7.5073,-12.9462 -20.9771,-20.2997 -34.9204,-20.5857 z m 415.4113,73.8989 c -6.6555,0.1855 -13.3735,1.9889 -19.5384,5.5637 -19.7274,11.4395 -26.4287,36.6949 -14.9892,56.4224 11.4395,19.7274 36.6949,26.4615 56.4224,15.0219 19.7274,-11.4395 26.4615,-36.6948 15.0219,-56.4224 -7.8646,-13.5626 -22.2744,-20.9936 -36.9167,-20.5856 z m -291.701,118.0485 c -6.6556,0.1854 -13.3735,1.9888 -19.5383,5.5636 -19.7276,11.4396 -26.4615,36.7277 -15.0221,56.4551 11.4395,19.7275 36.7276,26.4288 56.4551,14.9893 19.7275,-11.4395 26.4288,-36.6949 14.9893,-56.4224 -7.8647,-13.5626 -22.2418,-20.9936 -36.884,-20.5856 z" id="path7064" style="fill:#ffffff;fill-opacity:1;fill-rule:nonzero;stroke:none"/><path d="m 6089.6875,5004.3438 a 8.3791018,8.3791018 0 0 0 -4.5,15.1874 l 81.9063,60.75 c 2.9217,-4.7695 6.3374,-9.2519 10.1562,-13.3437 l -82.0938,-60.8437 a 8.3791018,8.3791018 0 0 0 -5.4687,-1.75 z m 296.0313,15.3124 a 8.3791018,8.3791018 0 0 0 -4.5626,1.25 l -85.2187,51.1563 c 3.3713,4.4589 6.2509,9.3139 8.625,14.4063 l 85.25,-51.1876 a 8.3791018,8.3791018 0 0 0 -4.0937,-15.625 z m -229.3438,110.2188 -143.4688,35.7812 a 8.3791018,8.3791018 0 1 0 4.0626,16.25 l 143.25,-35.7187 c -1.8186,-5.0787 -3.1452,-10.3429 -3.7813,-15.75 -0.03,-0.1872 -0.034,-0.3753 -0.062,-0.5625 z m 148.125,25.3125 c -2.4804,5.0146 -5.5566,9.7262 -9.0938,14.0625 l 125.3438,81.3125 a 8.3903204,8.3903204 0 0 0 9.1562,-14.0625 L 6304.5,5155.1875 z m -106.75,34.4375 -64.625,168.5625 a 8.3978815,8.3978815 0 1 0 15.6875,6 l 64.4687,-168.25 c -5.3921,-1.5253 -10.6016,-3.6403 -15.5312,-6.3125 z" id="path7068" style="font-size:medium;font-style:normal;font-variant:normal;font-weight:normal;font-stretch:normal;text-indent:0;text-align:start;text-decoration:none;line-height:normal;letter-spacing:normal;word-spacing:normal;text-transform:none;direction:ltr;block-progression:tb;writing-mode:lr-tb;text-anchor:start;baseline-shift:baseline;color:#333333;fill:#ffffff;fill-opacity:1;stroke:none;stroke-width:16;marker:none;visibility:visible;display:inline;overflow:visible;enable-background:accumulate;font-family:Sans;-inkscape-font-specification:Sans" transform="translate(0,-448)"/><path d="m 3776.7217,2330.9358 a 35.483906,35.483906 0 1 1 -70.9678,0 35.483906,35.483906 0 1 1 70.9678,0 z" id="path7078" style="fill:#00a1f1;fill-opacity:1;fill-rule:nonzero;stroke:none" transform="matrix(-0.88517276,-1.5264896,1.5264896,-0.88517276,5987.6232,12446.577)"/></g></g></g></svg>